<?xml version="1.0" encoding="UTF-8"?>
<svg id="Layer_1" data-name="Layer 1" xmlns="http://www.w3.org/2000/svg" version="1.1" viewBox="0 0 212.8 72.4">
  <defs>
    <style>
      .cls-1 {
        fill: #851618;
      }

      .cls-1, .cls-2 {
        stroke-width: 0px;
      }

      .cls-2 {
        fill: #ed1c24;
      }
    </style>
  </defs>
  <g>
    <path class="cls-1" d="M91.9,32.6v-7l-4.1-4.1v-3.1h2.2v-1.2h-2.2v-2.1h-1.2v2.1h-2.2v1.2h2.2v3.1l-4.1,4.1v7l-5.2,5.2c.3.5.7,1,1.1,1.4l8.8-8.8,8.8,8.8c.4-.4.7-.9,1.1-1.4l-5.2-5.2ZM90.2,26.3v4.6l-2.4-2.4v-4.6l2.4,2.4ZM84.2,26.3l2.4-2.4v4.6l-2.4,2.4v-4.6Z"/>
    <polygon class="cls-1" points="83.9 35.6 90.5 35.6 87.2 32.3 83.9 35.6"/>
    <path class="cls-1" d="M82.9,36.6l-2.6,2.6c1.2,1.8,3.1,3.2,5.3,3.6v-2.9c0-.9.7-1.5,1.6-1.5s1.6.7,1.6,1.5v2.9c2.2-.4,4.1-1.8,5.3-3.6l-2.6-2.6h-8.6Z"/>
  </g>
  <path class="cls-1" d="M30.5,25.9c0-2.2.5-4.9.5-4.9l-8.6,17.6s-3.8,0-5.7-3l-6.7-14.3s.4,2.4.4,4.6v19.1s-6.3,0-6.3-3.1V10.6h4.1c.2,0,3.2,0,4.6,2.8l7.7,16.5c3-6.4,6.3-13,9.3-19.3,1.6,0,7.2,0,7.2,3.1v31.2s-6.3,0-6.3-3.1v-16h0Z"/>
  <path class="cls-1" d="M48,23.6l1,6.4c.8,5.9,4.1,8.1,4.1,8.1,0,0,3.4-2.5,4.2-8.1l.8-6.3c.5-3.8,6.4-3.9,6.4-3.9l-1,9.4c-.7,6.2-4.6,10.9-7.5,13.1l-1.8,1.4c-3,2.4-5.4,4.4-5.4,7.5s.7,3.4,1,4.1c-.8.4-1.7.7-2.5.7-2.2,0-4.4-1.6-4.4-5.3s3-6.8,6.6-9.4c-3-1.8-6.2-6.6-6.8-12.1l-1-9.4s5.8-.1,6.3,3.8Z"/>
  <path class="cls-2" d="M105.2,44.8s-6.2,0-6.2-3.1V8.4c.3,0,6.2-.1,6.2,3.6v6.6c0,1.2-.4,2.8-.4,2.8,0,0,2.3-1.9,6.1-1.9s9.5,2.6,9.5,8.2v17.1s-6.2,0-6.2-3.1v-13.3c0-3.1-1.7-4.4-3.9-4.4s-5.1,1.6-5.1,3.9c0,0,0,16.9,0,16.9Z"/>
  <path class="cls-2" d="M128.4,36.5c0,2.5,1.2,3.9,4.6,3.9s4.5-.7,4.5-.7v-20s6.2,0,6.2,3.1v22.2s-1.9-1-4.3-1-4.5,1-7.1,1c-4.9,0-10-1.7-10-7.8v-17.5s6.2,0,6.2,3.1v13.7h0Z"/>
  <path class="cls-2" d="M145.6,41.7v-22.2c1.4.7,2.6,1,3.6,1,2.1,0,4.2-1,7-1s6.4,1.2,6.4,4.5-1.8,4.1-2.2,4.6c0-3-2.4-4.3-5.1-4.3s-3,.4-3.6.5v20s-6.2,0-6.2-3.1Z"/>
  <path class="cls-2" d="M183.2,39.4c0,3.5-4,5.6-9.4,5.6s-10.9-3.1-10.9-8.3v-8.9c0-5.2,3.9-8.3,10.7-8.3s9,1.3,9,5.5-.6,2.8-1.9,4.7c0-3.8-3.1-5.5-6.1-5.5s-5.7,1-5.7,4.9v6.4c0,3.4,1.8,4.9,5.5,4.9s7.1-2,7.2-4.8c1,1.4,1.5,2.7,1.5,3.9Z"/>
  <path class="cls-2" d="M191.2,44.8s-6.2,0-6.2-3.1V8.4c.3,0,6.2-.1,6.2,3.6v6.6c0,1.2-.4,2.8-.4,2.8,0,0,2.3-1.9,6.1-1.9s9.5,2.6,9.5,8.2v17.1s-6.2,0-6.2-3.1v-13.3c0-3.1-1.7-4.4-3.9-4.4s-5.1,1.6-5.1,3.9v16.9Z"/>
  <g>
    <path class="cls-1" d="M101.5,54.9v1.8c0,1,.6,1.3,1.4,1.3s1.9-.2,2-1c.2.2.2.5.2.6,0,.8-1.2,1-2.2,1s-2.3-.5-2.3-1.9v-2c0-1.4,1.1-1.9,2.3-1.9s2.2.3,2.2,1.1,0,.3-.2.6c0-.7-1.1-1-2-1-.8,0-1.4.3-1.4,1.3Z"/>
    <path class="cls-1" d="M107,58.7s-.8,0-.8-.5v-5.7c0,0,.8,0,.8.5v1.1c0,.4,0,.6,0,.6,0,0,.3-.4,1.2-.4s1.5.5,1.5,1.3v2.9s-.8,0-.8-.5v-2.3c0-.6-.3-.8-.8-.8s-1,.3-1,.7v2.9h0Z"/>
    <path class="cls-1" d="M111.5,57.3c0,.5.2.7.9.7s.9-.1.9-.1v-3.4s.8,0,.8.5v3.8c0,0-.3-.1-.6-.1s-.8.2-1.2.2c-.8,0-1.6-.3-1.6-1.3v-3s.8,0,.8.5c0,0,0,2.4,0,2.4Z"/>
    <path class="cls-1" d="M116,55.3v3.4s-.8,0-.8-.5v-3.7c.2,0,.4.1.6.1.3,0,.7-.2,1.1-.2s1,.2,1,.7-.2.5-.3.7c0-.5-.4-.7-.9-.7-.3,0-.7.1-.7.1Z"/>
    <path class="cls-1" d="M121.5,57.8c0,.6-.7.9-1.6.9s-1.8-.5-1.8-1.3v-1.6c0-.8.7-1.3,1.8-1.3s1.5.2,1.5.9,0,.4-.3.7c0-.6-.5-.9-1.1-.9s-1,.2-1,.8v1.2c0,.6.3.8,1,.8s1.3-.3,1.3-.8c.2.2.2.4.2.6Z"/>
    <path class="cls-1" d="M123.2,58.7s-.8,0-.8-.5v-5.7c0,0,.8,0,.8.5v1.1c0,.4,0,.6,0,.6,0,0,.3-.4,1.2-.4s1.5.5,1.5,1.3v2.9s-.8,0-.8-.5v-2.3c0-.6-.3-.8-.8-.8s-1,.3-1,.7v2.9h0Z"/>
    <path class="cls-1" d="M133.8,55c0-.3,0-.8,0-.8l-1.6,3.3s-.5,0-.8-.5l-1.3-2.8s0,.4,0,.8v3.7s-.9,0-.9-.5v-5.3h.6s.5,0,.7.4l1.4,3c.3-.5,1.4-2.9,1.7-3.4.2,0,1.1,0,1.1.5v5.3s-.9,0-.9-.5v-3.2h0Z"/>
    <path class="cls-1" d="M138.1,55.8c0-.3-.2-.6-.9-.6s-1.3.3-1.3.9c-.2-.3-.3-.5-.3-.7,0-.6.8-.9,1.6-.9,1.1,0,1.7.5,1.7,1.3v2.9c-.2,0-.4-.1-.6-.1-.4,0-.8.1-1.2.1-.8,0-1.6-.3-1.6-1.2,0-1.5,2.2-1.1,2.5-1.8ZM138.2,56.5c-.2.5-1.7.2-1.7,1s.3.6.9.6.9-.2.9-.2v-1.4h0Z"/>
    <path class="cls-1" d="M142.6,55.8c0-.5-.2-.7-.9-.7s-.9.1-.9.1v3.4s-.9,0-.9-.5v-3.8c0,0,.3.2.6.2s.8-.2,1.2-.2c.8,0,1.6.3,1.6,1.3v3s-.9,0-.9-.5v-2.4h0Z"/>
    <path class="cls-1" d="M146.9,55.8c0-.3-.2-.6-.9-.6s-1.3.3-1.3.9c-.2-.3-.3-.5-.3-.7,0-.6.8-.9,1.6-.9,1.1,0,1.7.5,1.7,1.3v2.9c-.2,0-.4-.1-.6-.1-.4,0-.8.1-1.2.1-.8,0-1.6-.3-1.6-1.2,0-1.5,2.2-1.1,2.5-1.8ZM146.9,56.5c-.2.5-1.7.2-1.7,1s.3.6.9.6.9-.2.9-.2v-1.4h0Z"/>
    <path class="cls-1" d="M152,56.1c0,.8-.6,1.4-1.7,1.4s-1-.2-1-.2c0,.1,0,.3,0,.4,0,.4.3.5,1,.5h.3c.8,0,1.7,0,1.7,1.1s-.6,1.4-1.8,1.4-1.7-.3-1.7-.9,0-.4.2-.6c0,.6.6.8,1.4.8s1-.3,1-.7-.4-.5-.9-.5h-.4c-.8,0-1.5,0-1.5-.9s.2-.6.4-.8c-.2-.2-.3-.6-.3-.9v-.4c0-.9.8-1.2,1.5-1.2s.8.2,1.2.2.4,0,.6-.1v1.6h0ZM151.2,55.3s-.4-.2-.9-.2-.8.2-.8.7v.2c0,.5.2.8.8.8s.8-.3.8-.8v-.8h0Z"/>
    <path class="cls-1" d="M156.2,57.8c0,.6-.7.9-1.6.9s-1.8-.5-1.8-1.3v-1.6c0-.8.6-1.3,1.7-1.3s1.7.5,1.7,1.3-.4,1.3-1.7,1.3-.6,0-.8-.2v.4c0,.5.3.8,1,.8s1.4-.3,1.4-.8c.1.2.2.4.2.6ZM153.7,56.2s.4.1.7.1c.7,0,.9-.2.9-.6s-.2-.6-.8-.6-.8.3-.8.8v.3h0Z"/>
    <path class="cls-1" d="M159.7,55.8c0-.5-.2-.7-.9-.7s-.9.1-.9.1v3.4s-.9,0-.9-.5v-3.8s.3.2.6.2c.4,0,.8-.2,1.2-.2s1,.1,1.2.4c0,0,.5-.4,1.4-.4s1.6.4,1.6,1.3v2.9s-.9,0-.9-.5v-2.4c0-.5-.3-.8-.8-.8s-.9.2-.9.6v3s-.9,0-.9-.5v-2.4h0Z"/>
    <path class="cls-1" d="M167.5,57.8c0,.6-.7.9-1.6.9s-1.8-.5-1.8-1.3v-1.6c0-.8.6-1.3,1.7-1.3s1.7.5,1.7,1.3-.4,1.3-1.7,1.3-.6,0-.8-.2v.4c0,.5.3.8,1,.8s1.4-.3,1.4-.8c.1.2.2.4.2.6ZM165,56.2s.4.1.7.1c.7,0,.9-.2.9-.6s-.2-.6-.8-.6-.8.3-.8.8v.3h0Z"/>
    <path class="cls-1" d="M171,55.8c0-.5-.2-.7-.9-.7s-.9.1-.9.1v3.4s-.9,0-.9-.5v-3.8c0,0,.3.2.6.2s.8-.2,1.2-.2c.8,0,1.6.3,1.6,1.3v3s-.9,0-.9-.5v-2.4h0Z"/>
    <path class="cls-1" d="M172.9,53.7c.2,0,.9,0,.9.7v.3h1.7s0,.7-.5.7h-1.2v1.8c0,.6.2.9.8.9s1-.2,1-.8c.2.2.3.4.3.7,0,.5-.6.9-1.4.9s-1.6-.5-1.6-1.3v-3.7h0Z"/>
    <path class="cls-1" d="M180.8,52.8c1.1,0,2.1.2,2.1,1s0,.5-.2.8h0c0-.8-.9-1-1.8-1s-1.3.2-1.3.8c0,1.4,3.6,0,3.6,2.6s-1,1.8-2.3,1.8-2.1-.2-2.1-1,0-.4.2-.7c0,.8,1,1,1.9,1s1.3-.4,1.3-1c0-1.6-3.6-.3-3.6-2.5,0-1.3,1-1.7,2.3-1.7Z"/>
    <path class="cls-1" d="M183.9,56.1c0-.5-.1-1-.2-1.6,0,0,.7,0,.8.4.1.3.2.9.2,1.4.1,1,.8,1.5.8,1.5,0,0,.7-.5.8-1.5v-1c.2-.7.9-.7,1.1-.7,0,.5-.1,1-.2,1.6-.1,1.1-.8,1.8-1.2,2.2l-.3.2c-.5.4-.9.7-.9,1.3s0,.5.2.7c0,0-.2,0-.3,0-.3,0-.7-.2-.7-.8s.5-1.2,1.1-1.6c-.5-.3-1-1.1-1.2-2.1Z"/>
    <path class="cls-1" d="M189.6,54.4c.9,0,1.6.2,1.6.8s0,.4-.3.7c0-.5-.5-.8-1.2-.8s-.9.2-.9.6c0,.8,2.6-.2,2.6,1.8s-.6,1.3-1.8,1.3-1.7-.3-1.7-.8,0-.4.3-.7c0,.6.6.8,1.3.8s.9-.2.9-.6c0-1-2.6,0-2.6-1.7s.6-1.3,1.7-1.3Z"/>
    <path class="cls-1" d="M192.2,53.7c.2,0,.9,0,.9.7v.3h1.7s0,.7-.5.7h-1.2v1.8c0,.6.2.9.8.9s1-.2,1-.8c.2.2.3.4.3.7,0,.5-.6.9-1.4.9s-1.6-.5-1.6-1.3v-3.7h0Z"/>
    <path class="cls-1" d="M199,57.8c0,.6-.7.9-1.6.9s-1.8-.5-1.8-1.3v-1.6c0-.8.6-1.3,1.7-1.3s1.7.5,1.7,1.3-.4,1.3-1.7,1.3-.6,0-.8-.2v.4c0,.5.3.8,1,.8s1.4-.3,1.4-.8c.1.2.2.4.2.6ZM196.4,56.2s.4.1.7.1c.7,0,.9-.2.9-.6s-.2-.6-.8-.6-.8.3-.8.8v.3h0Z"/>
    <path class="cls-1" d="M202.5,55.8c0-.5-.2-.7-.9-.7s-.9.1-.9.1v3.4s-.9,0-.9-.5v-3.8s.3.2.6.2c.4,0,.8-.2,1.2-.2s1,.1,1.2.4c0,0,.5-.4,1.4-.4s1.6.4,1.6,1.3v2.9s-.9,0-.9-.5v-2.4c0-.5-.3-.8-.8-.8s-.9.2-.9.6v3s-.9,0-.9-.5v-2.4h0Z"/>
  </g>
  <path class="cls-2" d="M71.5,28.9c0-8.7,7-15.7,15.6-15.9v-5.7c-11.8.1-21.3,9.7-21.3,21.5s9.5,21.4,21.3,21.5v-5.7c-8.7-.1-15.6-7.2-15.6-15.9Z"/>
</svg>