<?xml version="1.0" encoding="UTF-8"?>
<svg id="Layer_1" data-name="Layer 1" xmlns="http://www.w3.org/2000/svg" version="1.1" viewBox="0 0 30 30">
  <defs>
    <style>
      .cls-1 {
        fill: #fff;
      }

      .cls-1, .cls-2 {
        fill-rule: evenodd;
        stroke-width: 0px;
      }

      .cls-2 {
        fill: #ed1c24;
      }
    </style>
  </defs>
  <path class="cls-2" d="M15,.65c7.92,0,14.35,6.42,14.35,14.35s-6.42,14.35-14.35,14.35S.65,22.92.65,15,7.08.65,15,.65"/>
  <path class="cls-1" d="M6.25,14.22v1.6c0,1.07.93,1.97,2.01,1.97h1.19v-5.59h-1.19c-1.12,0-2.01.9-2.01,2.01M7.44,20.51c0,.67.48,1.23,1.12,1.23.9,0,1.3-.51,1.3-1.41v-1.75c-.63,0-1.32.03-1.94-.04-.18-.02-.31-.07-.48-.07v2.05ZM20.55,14.96c0,.27.16.45.45.45h2.35c.34,0,.54-.42.29-.7-.08-.09-.18-.12-.33-.12h-2.31c-.31,0-.45.23-.45.37ZM20.55,12.24c.28,0,1.03-.86,1.26-1.09.21-.21.34-.25.34-.55,0-.21-.17-.37-.41-.37s-.45.28-.59.42c-.18.18-.33.33-.5.5-.14.14-.41.36-.47.53-.09.25.13.56.37.56ZM21.71,19.77c.34,0,.45-.18.45-.48,0-.15-1.06-1.16-1.27-1.37-.41-.39-1,.14-.58.58l.9.89c.12.12.31.38.51.38ZM10.24,12.21v5.59c.32.08.88.09,1.45.23,1.16.29,2.48.96,3.29,1.77.19.19.18.1.42.4l.61.66c.5.59,1,1.17,1.88.78.34-.15.7-.53.7-1.01v-11.25c0-.91-1.21-1.49-1.94-.9-.21.17-.42.42-.6.63-.07.09-.15.14-.22.23l-.41.45c-.23.29-.58.56-.88.8-.18.14-.31.24-.5.36-.88.59-1.96,1-3.04,1.17-.25.04-.54.04-.76.1Z"/>
</svg>