<?xml version="1.0" encoding="UTF-8"?>
<svg id="Layer_1" data-name="Layer 1" xmlns="http://www.w3.org/2000/svg" version="1.1" viewBox="0 0 30 30">
  <defs>
    <style>
      .cls-1 {
        fill: #fbfcfc;
      }

      .cls-1, .cls-2 {
        fill-rule: evenodd;
        stroke-width: 0px;
      }

      .cls-2 {
        fill: #ed1c24;
      }
    </style>
  </defs>
  <path class="cls-2" d="M15,.65c7.92,0,14.35,6.42,14.35,14.35s-6.42,14.35-14.35,14.35S.65,22.92.65,15,7.08.65,15,.65"/>
  <g>
    <path class="cls-1" d="M12.97,13.65c0,.4.41.53.63.85h-3.83c-.31,0-.8-.05-.8.53,0,.52.55.48.8.48h3.83c-.22.32-.63.46-.63.85,0,.27.22.5.53.5.26,0,.41-.22.54-.36l.91-.91c.19-.19.37-.29.37-.61,0-.26-.22-.41-.36-.55l-.91-.91c-.17-.17-.29-.37-.58-.37-.27,0-.5.23-.5.5M11.87,9.06v1.95c0,.63,1,.63,1,0v-1.43h7.17v10.82h-7.17v-1.43c0-.63-1-.63-1,0v1.95c0,.26.22.48.48.48h8.22c.26,0,.48-.22.48-.48v-11.88c0-.26-.22-.48-.48-.48h-8.22c-.26,0-.48.22-.48.48Z"/>
    <path class="cls-1" d="M12.97,13.65c0,.4.41.53.63.85h-3.83c-.31,0-.8-.05-.8.53,0,.52.55.48.8.48h3.83c-.22.32-.63.46-.63.85,0,.27.22.5.53.5.26,0,.41-.22.54-.36l.91-.91c.19-.19.37-.29.37-.61,0-.26-.22-.41-.36-.55l-.91-.91c-.17-.17-.29-.37-.58-.37-.27,0-.5.23-.5.5M11.87,9.06v1.95c0,.63,1,.63,1,0v-1.43h7.17v10.82h-7.17v-1.43c0-.63-1-.63-1,0v1.95c0,.26.22.48.48.48h8.22c.26,0,.48-.22.48-.48v-11.88c0-.26-.22-.48-.48-.48h-8.22c-.26,0-.48.22-.48.48Z"/>
  </g>
</svg>