<?xml version="1.0" encoding="UTF-8"?>
<svg id="Layer_1" data-name="Layer 1" xmlns="http://www.w3.org/2000/svg" version="1.1" viewBox="0 0 30 30">
  <defs>
    <style>
      .cls-1 {
        fill: #fff;
      }

      .cls-1, .cls-2 {
        fill-rule: evenodd;
        stroke-width: 0px;
      }

      .cls-2 {
        fill: #ed1c24;
      }
    </style>
  </defs>
  <path class="cls-2" d="M15,.65c7.92,0,14.35,6.42,14.35,14.35s-6.42,14.35-14.35,14.35S.65,22.92.65,15,7.08.65,15,.65"/>
  <path class="cls-1" d="M12.38,10.03h5.99c.41,0,.74.33.74.74h0c0,.41-.33.74-.74.74h-5.99c-.41,0-.74-.33-.74-.74h0c0-.41.33-.74.74-.74M12.38,12.96h7c.41,0,.74.33.74.74h0c0,.41-.33.74-.74.74h-7c-.41,0-.74-.33-.74-.74h0c0-.41.33-.74.74-.74ZM12.38,15.89h5.06c.41,0,.74.33.74.74h0c0,.41-.33.74-.74.74h-5.06c-.41,0-.74-.33-.74-.74h0c0-.41.33-.74.74-.74ZM8.32,11.58h.3c.11,0,.2.09.2.2v9.58h9.47c.11,0,.2.09.2.2v.3c0,.11-.09.2-.2.2h-9.98c-.11,0-.2-.09-.2-.2v-.3s0-.02,0-.03v-9.75c0-.11.09-.2.2-.2ZM11.52,7.94h8.46c1.05,0,1.9.85,1.9,1.9v8.74c0,1.05-.85,1.9-1.9,1.9h-8.46c-1.05,0-1.9-.85-1.9-1.9v-8.74c0-1.05.85-1.9,1.9-1.9Z"/>
</svg>