<?xml version="1.0" encoding="UTF-8"?>
<svg id="Layer_1" data-name="Layer 1" xmlns="http://www.w3.org/2000/svg" version="1.1" viewBox="0 0 30 30">
  <defs>
    <style>
      .cls-1 {
        fill: #fff;
      }

      .cls-1, .cls-2 {
        fill-rule: evenodd;
        stroke-width: 0px;
      }

      .cls-2 {
        fill: #ed1c24;
      }
    </style>
  </defs>
  <path class="cls-2" d="M15,.65c7.92,0,14.35,6.42,14.35,14.35s-6.42,14.35-14.35,14.35S.65,22.92.65,15,7.08.65,15,.65"/>
  <path class="cls-1" d="M9.02,11.58h11.95c.01-.82.07-1.28-.84-1.28-.7,0-1.44-.02-2.13,0-.02.21.1.86-.44.85-.19,0-.32-.12-.38-.25-.08-.16-.03-.41-.05-.61h-1.7c-.01.19.03.45-.04.6-.14.32-.61.34-.77.02-.08-.16-.04-.42-.05-.61h-1.7c-.02.2.1.84-.43.85-.54,0-.42-.65-.44-.85-.69-.02-1.41,0-2.11,0-.94,0-.88.43-.88,1.28M20.98,12.43h-11.95c-.05.64-.01,2.71-.01,3.5v3.53c0,.4-.07,1.08.68,1.09,1.66.03,3.61,0,5.29,0h5.29c.75,0,.71-.62.71-1.06v-5.29c0-.57.03-1.21,0-1.76ZM13.57,16.04c.14.21.54.52.63.68.15.27-.08.78-.07,1.11.19-.08.67-.41.86-.41.2,0,.71.33.89.41,0-.31-.22-.84-.07-1.11.12-.21.48-.45.63-.68,0,0-.02-.02-.02-.01l-.21-.05c-.99-.14-.7-.08-1.18-1.01-.13.08-.3.66-.44.8-.15.16-.6.17-.87.22l-.12.04s-.01,0-.02.01ZM14.88,13.53c-.29.1-.4.51-.61.94-.37.77-.12.6-.83.71-.43.07-1.03.08-1.17.35-.2.38.23.66.53.97.6.62.58.49.51.92-.04.24-.22,1.17-.18,1.35.04.17.21.32.43.31.15,0,.39-.16.53-.24.18-.1.31-.17.5-.28.54-.3.27-.29,1.49.38.17.09.33.21.55.1.48-.23.05-1.04,0-1.86,0-.14.17-.27.33-.44.45-.47,1.15-.99.62-1.35-.15-.1-1.03-.2-1.29-.24-.39-.06-.27,0-.67-.86-.14-.3-.3-.9-.75-.74ZM8.16,10.77v9.31c.04.08.06.26.1.37.13.33.4.63.74.8.5.24,1.29.15,1.91.15h8.15c1,0,1.89.18,2.47-.6.27-.36.22-.55.3-.73v-9.31c-.06-.14-.07-.32-.15-.5-.21-.42-.61-.74-1.13-.82-.35-.05-2.01,0-2.55-.02-.06-.35.07-.61-.22-.79-.27-.17-.57.02-.62.25l-.05.53c-.29,0-1.51.04-1.69-.03,0-.18.03-.41-.05-.57-.06-.12-.19-.24-.39-.24-.42.01-.42.41-.41.81-.18.07-1.4.03-1.69.03,0-.11.04-.46-.05-.53-.05-.23-.35-.42-.62-.25-.29.18-.16.44-.22.79-.43.01-.86,0-1.29,0-.84,0-1.56-.14-2.14.47-.35.36-.31.64-.4.86Z"/>
</svg>