<?xml version="1.0" encoding="UTF-8"?>
<svg id="Layer_1" data-name="Layer 1" xmlns="http://www.w3.org/2000/svg" version="1.1" viewBox="0 0 30 30">
  <defs>
    <style>
      .cls-1 {
        fill: #fff;
        fill-rule: evenodd;
        stroke-width: 0px;
      }
    </style>
  </defs>
  <path class="cls-1" d="M10.74,10.34c.18.16.22.15.49.15.14,0,.29,0,.46,0h14.07s.85.04.85.04l.17-.06c.32-.24.19-1.06.19-1.53,0-.46.04-1.28-.03-1.66-.47-.24-3.21-.11-4-.11h-10.28c-2.32,0-1.94-.34-1.94,1.64,0,.43-.04,1.11.02,1.51M2.02,13.85l-.12.29-.12.77-.4,2.61-.25,3.29-.03.7c0,.59-.03,1.17-.03,1.76,0,.69-.15,1.16.58,1.18.29,0,2.3.13,2.48.06.28-.1.23-.28.29-.57,0-.02-.01-.04-.02-.05l-.04-1.03.24-3.5.09-.69.12-1.1c.08-.76.19-1.51.29-2.25.17-1.21.34-1.44-.38-1.52-.09-.01-.08,0-.16-.03l-.1-.03h-.86s-.76-.04-.76-.04c-.17-.02-.36-.04-.53,0-.2.03-.15.05-.3.14ZM23.58,16.75h1.76s.18-.09.18-.09v-5.67c-.39-.19-2.24-.08-2.88-.08-.85,0-2.17-.08-2.94,0-.26.04-.31.04-.32.32v4.53c0,.27-.02.31.26.34l1.67.28c1.09.22,1.26.39,2.27.37ZM12.14,13.73c1.18-.05,3.49,1.06,4.54,1.7.84.51.69.35,1.62.56v-.12c-.02-.83-.01-1.69,0-2.53.02-2.63.19-2.44-.76-2.43h-3.94c-.26,0-.51,0-.77-.01-.53,0-.51-.03-.64.13-.14.17-.06,2.29-.06,2.7ZM21.41,2.36c-.49.23-1.02.67-1.23,1.17-.08.04-.04,0-.1.09-.16.2-.57,1.12-.65,1.34-.16.43-.4,1.28-.44,1.81h3.53c.45-.06,1.26-.69,1.58-1.07.17-.2.19-.34.34-.55.11-.63.2-.7.02-1.39-.11-.41-.35-.8-.61-1.03-.8-.7-1.33-.66-2.44-.38ZM14.33,2.36c-.25.16-.43.26-.64.51-.09.1-.17.22-.24.35-.08.15-.1.22-.19.35-.06.4-.13.53-.14,1,0,.24.07.51.18.65.23.56.61.78.96,1.12,1.02.51.41.46,1.98.44.78,0,1.7-.03,2.47,0-.09-.45-.16-.88-.29-1.3l-.41-1.18c-.18-.2-.39-.65-.59-.94-.23-.33-.42-.53-.75-.77-.71-.5-1.47-.52-2.33-.23ZM9.01,14.58l-.93.2c-.15.08-1.36.49-1.58.52-.25.18-.41.09-.44.51l-.39,4.42-.14,2.04c-.03.62.19.52.66.68.36.04.81.08,1.06.23.36.1,1.49.69,1.75.89.46.21.91.51,1.37.76.45.25.91.51,1.33.77.38.16.99.56,1.38.75.3.15.35.24.35.24,0-.01.02.02.03.03.09.02,1.73.82,1.85.91.35.06.53.23.95.27.35.03.72,0,1.02-.03.72-.09,1.45-.23,2.15-.33l1.12-.18.09-.04s.03-.01.05-.02l3.29-.59c.8-.35,1.11-.7,1.74-1.14.21-.23.79-.65,1.1-.89l1.11-.89c.5-.49,1.73-1.59.98-2.46.16-.3.43-.45.31-.93-.22-.88-1.51-1.14-2.55-.49-.27.17-.49.32-.75.48l-.14.1c-.16.23-.53.6-.76.76-.65.91-3.09,1.27-4.58,1.29-2.94,0-3.1-1.02-4.7-1.34-.39-.08-1.23-.3-1.52-.47.48-.04.98.02,1.46-.02.38-.03.83-.13,1.23-.17.54-.03.79-.03.96.06.39-.03,1.29.18,1.73.24.55.08,1.1.2,1.65.29l.78.15c.56.09.59.12,1.14,0l.1-.07c.96-.72,1.21-2.06.79-2.6-.3-.74-1.4-1.09-2.32-1.3-.52-.12-1-.23-1.51-.31-.39-.06-1.22-.1-1.5-.18-1.3-.1-1.58-.11-2.52-.68-.67-.41-1.26-.73-2-1.05-1.8-.78-3.21-.67-5.23-.42Z"/>
</svg>