<?xml version="1.0" encoding="UTF-8"?>
<svg id="Layer_1" data-name="Layer 1" xmlns="http://www.w3.org/2000/svg" version="1.1" viewBox="0 0 30 30">
  <defs>
    <style>
      .cls-1 {
        fill: #fff;
      }

      .cls-1, .cls-2 {
        fill-rule: evenodd;
        stroke-width: 0px;
      }

      .cls-2 {
        fill: #ed1c24;
      }
    </style>
  </defs>
  <path class="cls-2" d="M15,1.16c7.53,0,13.64,6.2,13.64,13.84s-6.11,13.84-13.64,13.84S1.36,22.64,1.36,15,7.47,1.16,15,1.16"/>
  <path class="cls-1" d="M9.31,11.53h11.36c.01-.79.07-1.24-.8-1.24-.67,0-1.36-.02-2.03,0-.02.21.1.82-.42.82-.18,0-.31-.12-.36-.24-.07-.15-.03-.4-.05-.59h-1.61c-.01.18.03.43-.04.58-.13.3-.58.33-.73.02-.08-.16-.04-.4-.05-.59h-1.61c-.02.2.1.81-.41.82-.51,0-.4-.63-.42-.82-.66-.02-1.34,0-2,0-.9,0-.84.41-.84,1.24M20.68,12.35h-11.36c-.04.62-.01,2.61-.01,3.37v3.4c0,.39-.07,1.04.64,1.05,1.58.03,3.43,0,5.03,0h5.03c.72,0,.67-.6.67-1.02v-5.1c0-.55.03-1.16,0-1.7ZM8.5,10.75v8.98c.03.08.06.25.1.36.12.32.38.61.7.77.48.23,1.23.15,1.81.15h7.75c.95,0,1.8.17,2.35-.58.26-.34.21-.53.29-.7v-8.98c-.06-.14-.07-.31-.15-.48-.2-.4-.58-.71-1.07-.79-.33-.05-1.91,0-2.42-.02-.06-.34.07-.59-.21-.76-.25-.16-.55.02-.59.24l-.04.51c-.27,0-1.44.04-1.61-.03,0-.18.03-.4-.04-.55-.06-.11-.18-.23-.37-.23-.4.01-.4.39-.39.78-.17.07-1.33.03-1.61.03,0-.1.03-.44-.04-.51-.05-.23-.33-.4-.59-.24-.28.17-.15.43-.21.76-.41.01-.82,0-1.23,0-.8,0-1.48-.13-2.04.46-.33.35-.29.62-.38.83Z"/>
</svg>