<?xml version="1.0" encoding="UTF-8"?>
<svg id="Layer_1" data-name="Layer 1" xmlns="http://www.w3.org/2000/svg" version="1.1" viewBox="0 0 30 30">
  <defs>
    <style>
      .cls-1 {
        fill: #fff;
      }

      .cls-1, .cls-2 {
        fill-rule: evenodd;
        stroke-width: 0px;
      }

      .cls-2 {
        fill: #ed1c24;
      }
    </style>
  </defs>
  <path class="cls-2" d="M15,.65c7.92,0,14.35,6.42,14.35,14.35s-6.42,14.35-14.35,14.35S.65,22.92.65,15,7.08.65,15,.65"/>
  <path class="cls-1" d="M7.27,19.32c-.16.08-.26.09-.3.37-.08.58.94,1.15,1.55,1.79l2.73,2.56c.19.16.47.54.9.34.37-.18.36-.62.13-.89l-3.42-3.19c-.57-.5-1.05-1.23-1.59-.98M22.28,19.3c-.2.1-1.2,1.03-1.41,1.25l-2.06,1.91c-.24.21-.44.43-.68.64-.18.15-.56.4-.58.75-.02.4.36.69.75.53.26-.11,3.6-3.35,4.13-3.81.19-.16.58-.41.6-.74.03-.43-.36-.73-.76-.54ZM17.61,22.47l3.16-2.95c-.41-.54-1.72-.72-1.7-1.53.11-4.67.56-3.41-1.31-8.26-.3-.78-.59-1.55-.9-2.32-.16-.4-.3-.77-.46-1.18-.07-.2-.12-.41-.25-.55-.17-.18-.44-.15-.58,0-.28.32.54,3.26.72,4.03.22.95.21.43.56,1.08.34.62.65,1.62.88,2.35.08.27.35,1.09.3,1.34-.05.23-.61.68-.83-.28-.19-.81-.49-1.69-.79-2.43-.13-.33-.31-1.02-.74-.86-.39.14-.19.94-.15,1.32.09.88.29,2.1.26,2.95-.06,1.86-.85,3.7.19,5.65.32.6,1.05,1.4,1.63,1.63ZM12.02,8.46c-.56.23-.22.91.28.73.4-.15.2-.92-.28-.73ZM11.64,25.24h.56c.43-.27.69-.26.93-.79.27-.6.06-.9-.13-1.38.39-.37.51-.33,1.16-1.03.28-.3.67-.87.81-1.36l.2.34c.16.34.41.74.65.99.63.69.85.73,1.18,1.06-.19.48-.4.79-.13,1.38.24.52.5.51.93.79h.56c.23-.13.35-.12.59-.31l4.37-4.09c.35-.35.65-.71.47-1.41-.11-.45-.5-.83-.96-.95-.66-.16-1.12.16-1.41.44-.23-.11-1.35-.81-1.52-.99-.05-1.34.25-2.78.06-4.15-.21-1.59-2.11-5.97-2.81-7.87-.37-1-.46-.82-1.02-1.15h-2.27c-.23.14-.32.1-.54.31-.4.37-.54,1.05-.78,1.65-.08.19-.19.41-.09.62.08.16.29.27.52.17.53-.22.52-2.18,1.29-1.93.45.15.2.88.11,1.25-.21.9-.42,1.77-.62,2.66-.26,1.15-.13.56-.51,1.13-.38.57-1.23,3.06-1.28,3.65-.05.57.63.73.8.09.12-.45.22-.84.36-1.28.19-.61.57-1.99,1.03-2.21.65.05.39.84.33,1.39-.06.57-.12,1.12-.18,1.69-.14,1.38,0,2.01.17,3.33.14,1.12.14,2.3-.3,3.26-.34.73-1.1,1.65-1.77,1.91-.15-.11-.28-.23-.42-.36l-2.74-2.59c.22-.3,1.5-.89,1.64-1.16.13-.24-.03-2.18-.05-2.6-.1-2.18.2-2.89.88-4.66.12-.31.37-.79-.04-.96-.45-.19-.57.28-.68.61-.24.68-.5,1.32-.72,2.04-.54,1.76-.1,3.34-.15,5.14-.16.16-1.32.9-1.52.99-.97-.94-2.15-.37-2.37.5-.07.29-.05.61.06.88.18.44,1.43,1.5,1.87,1.89l2.44,2.27c.9.85.28.32,1.08.77Z"/>
</svg>