<?xml version="1.0" encoding="UTF-8"?>
<svg id="Layer_1" data-name="Layer 1" xmlns="http://www.w3.org/2000/svg" version="1.1" viewBox="0 0 30 30">
  <defs>
    <style>
      .cls-1 {
        fill: #fff;
        fill-rule: evenodd;
        stroke-width: 0px;
      }
    </style>
  </defs>
  <path class="cls-1" d="M10.17,5.29c0,1.1-.01,1.6.6,2.62.34.56.7.91,1.19,1.34-.83,0-2.17.39-2.87.78-.3.17-.77.62-.98.88-.27.34-.57.69-.79,1.06-1.21,2.02-1.55,3.82-1.55,6.62-1.83,0-1.61-.13-1.61,2.23,0,.63.72.62,1.36.62.68,0,1.36,0,2.04,0-.02.19-.06.22-.06.43v5.44c0,.88.71,1.55,1.42,1.55h12.18c.72,0,1.42-.7,1.42-1.42,0-1.01.09-5.36-.06-6,.66,0,1.32,0,1.98,0,1.6,0,1.36-.26,1.36-2.23,0-.3-.15-.21-.1-.53.03-.25.1-.28.1-.58,0-.62-.39-1.17-.87-1.3.45-1.92-.3-4.2-1.11-5.81-.14-.29-.59-1.06-.62-1.36.2-.05.09,0,.22-.16.83-1.04-.02-2.44-1.02-2.44h-.31c-1.54,0-1.95,2.5-.28,2.94l.29.08c.24.11.59.95.75,1.29,1.01,2.02,1.15,2.72,1.15,4.84,0,.17-.03.17-.06.31h-.19c-.03-.37-.16-1.01-.25-1.36-.23-.94-.48-1.59-.91-2.43-.19-.38-.42-.7-.64-1.03l-.54-.7c-.37-.44-.51-.65-1.1-1.01-.58-.35-1.79-.64-2.63-.71.19-.28.7-.48,1.22-1.44.83-1.56.75-3.22-.24-4.67-.44-.65-1.07-1.2-1.8-1.54-2.33-1.08-5.03-.18-6.25,2-.2.36-.47,1.16-.47,1.69M14.5,2.2c1.05,0,1.69.04,2.57.71.45.34,1,.92,1.14,1.52h-6.8c.3-.63.46-.99,1.15-1.51.45-.34,1.2-.71,1.95-.71ZM11.16,5.6v-.19h7.3c0,1.19-.22,1.85-1.07,2.71-.27.27-.55.51-.94.67-2.64,1.1-5.29-.58-5.29-3.19ZM22.23,8.01c.62,0,.75.99-.06.99-.23,0-.41-.3-.41-.5,0-.22.22-.49.47-.49ZM13.02,10.18h3.59c0,.59-.04,1.05-.54,1.5-1.06.94-3.05.51-3.05-1.5ZM9.68,18.59h-2.91c0-2.1.36-4.27,1.15-5.59l.65-1.02c.17-.23.61-.75.83-.9.61-.42,1.62-.78,2.62-.78,0,1.17.5,2.04,1.46,2.56.87.47.83-.19.83,1.03,0,.2-.37.32-.37.8,0,.37.37.65.37.8v.74c0,.2-.37.32-.37.8s.37.61.37.8v.74h-3.65c.12-.24.26-3.1,1.29-4.34.22-.26.38-.18.38-.61,0-.86-1.64-1.02-2.44,3.25-.09.49-.22,1.19-.22,1.7ZM17.29,13.64c0,.36.26.38.64.96.51.78,1.01,3.1,1.03,3.98h-3.65v-.74c0-.27.37-.2.37-.8,0-.56-.31-.5-.31-.74v-.87c0-.21.31-.25.31-.74s-.31-.6-.31-.8c0-1.56.12-.17,1.56-1.65.39-.4.73-1.16.73-1.93.71,0,1.72.32,2.21.58,1.32.71,2.86,4.01,2.86,5.61,0,.28-.21.07-.7.54-.52.5-.57.91-.42,1.56-2.42,0-1.3.49-2.05-2.52-.24-.95-.46-1.68-1.05-2.42-.73-.93-1.23-.35-1.23,0ZM22.54,17.97c.59-.89,2.23-.39,2.23,0,0,.82-.06.62-2.1.62,0-.15-.08-.52-.12-.62ZM5.16,19.64h19.61v.74H5.16v-.74ZM8.57,27.37v-5.5c0-.29.14-.43.43-.43h12.18c.14,0,.31.16.31.31v5.75c0,.3-.42.37-.74.37h-11.5c-.37,0-.68-.12-.68-.49Z"/>
</svg>