<?xml version="1.0" encoding="UTF-8"?>
<svg id="Layer_1" data-name="Layer 1" xmlns="http://www.w3.org/2000/svg" version="1.1" viewBox="0 0 30 30">
  <defs>
    <style>
      .cls-1 {
        fill: #fff;
      }

      .cls-1, .cls-2 {
        fill-rule: evenodd;
        stroke-width: 0px;
      }

      .cls-2 {
        fill: #ed1c24;
      }
    </style>
  </defs>
  <path class="cls-2" d="M15,.65c7.92,0,14.35,6.42,14.35,14.35s-6.42,14.35-14.35,14.35S.65,22.92.65,15,7.08.65,15,.65"/>
  <path class="cls-1" d="M7.27,8.34c0,.29.15.51.39.51h2.42l1.63,7.37c-.38.09-.82.67-.82,1.15,0,.54.18.94.59,1.22.42.28.78.23,1.43.23l-.04.02c-.35.13-.36.07-.71.41-.81.81-.19,2.29.9,2.29h.18c.63,0,1.27-.64,1.27-1.27,0-.41-.07-.72-.35-1-.12-.12-.18-.19-.33-.27-.19-.11-.23-.09-.39-.15,0,0-.02,0-.02,0,0,0-.01,0-.02,0l5.72.07c-.48.15-.92.66-.92,1.2v.18c0,.63.64,1.27,1.27,1.27h.18c.63,0,1.27-.64,1.27-1.27,0-.41-.07-.72-.35-1-.12-.12-.18-.19-.33-.27l-.41-.16s-.01,0-.02,0c.56,0,1.12.14,1.12-.51,0-.2-.19-.39-.48-.39h-7.88c-.34,0-.52,0-.67-.2-.15-.21-.06-.47.1-.6.24-.19,1.23-.1,1.65-.1h5.28c2.15,0,1.8.3,2.25-1.28.27-.92.52-1.8.78-2.72.11-.38.77-2.52.77-2.85,0-.52-.78-.39-1.09-.39h-10.42c-.23-.48-.16-1.81-.72-1.81h-2.84c-.19,0-.39.21-.39.39M11.41,10.67h10.26l-1.36,4.74c-.04.16-.18.54-.18.69h-7.52l-1.21-5.43ZM12.71,20.21c-.02-.15.13-.46.43-.48.25-.02.46.2.47.42.04.55-.8.66-.9.05ZM19.11,20.21c-.02-.15.13-.46.43-.48.57-.04.64.85.05.89-.13,0-.25-.05-.32-.12-.08-.07-.14-.19-.16-.3Z"/>
</svg>